# xmcd
#
# Track frame offsets:
#	150
#	12777
#	20923
#	31261
#	42283
#	47853
#	57831
#	67901
#	76966
#	88062
#
# Disc length: 1280 seconds
#
# Revision: 0
# Processed by: cddbd v1.5.2PL0 Copyright (c) Steve Scherf et al.
# Submitted via: audiograbber 1.83.01
#
DISCID=7804fe0a
DTITLE=Johnny Cash - Lonesome me
DYEAR=1900
DGENRE=
TTITLE0=Folsom Prison Blues
TTITLE1=I Can't Help It 
TTITLE2=You Win Again
TTITLE3=Mean Eyed Cat
TTITLE4=My Treasure
TTITLE5=Hey Porter
TTITLE6=Straight A's in Love
TTITLE7=Two Timin' Woman
TTITLE8=Oh, Lonesome Me
TTITLE9=Sugartime
EXTD=
EXTT0=
EXTT1=
EXTT2=
EXTT3=
EXTT4=
EXTT5=
EXTT6=
EXTT7=
EXTT8=
EXTT9=
PLAYORDER=
